/* XPM */
static char *bitcoin16[] = {
/* columns rows colors chars-per-pixel */
"16 16 93 2 ",
"   c #224776",
".  c #244774",
"X  c #254875",
"o  c #224B7A",
"O  c #244B79",
"+  c #254B79",
"@  c #234D7B",
"#  c #234E7D",
"$  c #244F7D",
"%  c #264F7D",
"&  c #22507E",
"*  c #24507E",
"=  c #225080",
"-  c #225181",
";  c #215283",
":  c #235282",
">  c #265281",
",  c #225484",
"<  c #255584",
"1  c #245687",
"2  c #235688",
"3  c #25598B",
"4  c #225B8F",
"5  c #255A8C",
"6  c #255B8D",
"7  c #275B8D",
"8  c #285A8C",
"9  c #225E92",
"0  c #265D90",
"q  c #275D90",
"w  c #245E91",
"e  c #255E91",
"r  c #245F92",
"t  c #255F93",
"y  c #265F92",
"u  c #285F91",
"i  c #256094",
"p  c #256195",
"a  c #276194",
"s  c #246296",
"d  c #256397",
"f  c #296497",
"g  c #226398",
"h  c #236398",
"j  c #226499",
"k  c #22649A",
"l  c #256498",
"z  c #24659A",
"x  c #22669C",
"c  c #22679D",
"v  c #22689D",
"b  c #22689E",
"n  c #23689E",
"m  c #24699E",
"M  c #24699F",
"N  c #2269A0",
"B  c #226AA0",
"V  c #226AA1",
"C  c #236BA2",
"Z  c #246AA0",
"A  c #246BA2",
"S  c #236CA3",
"D  c #246CA3",
"F  c #256CA3",
"G  c #266DA3",
"H  c #256DA4",
"J  c #266DA4",
"K  c #256EA6",
"L  c #256FA7",
"P  c #266FA6",
"I  c #2970A7",
"U  c #2770A9",
"Y  c #2672AA",
"T  c #2672AB",
"R  c #2772AB",
"E  c #2773AB",
"W  c #2673AD",
"Q  c #2774AD",
"!  c #2774AE",
"~  c #2871A9",
"^  c #2972A9",
"/  c #2872AA",
"(  c #2973AB",
")  c #2A74AC",
"_  c #2875AE",
"`  c #2777B1",
"'  c #2778B4",
"]  c #2779B4",
"[  c #267AB6",
"{  c #267BB7",
"}  c #287AB5",
"|  c #287AB6",
" . c None",
/* pixels */
" . . . . . . .: & @ +  . . . . .",
" . . . .q 3 1 < > % O   .  . . .",
" . . .s y  .8 1 ; = $  .X  . . .",
" . .c z  .e 7  . . .* o  . . . .",
" . .B  .g  .u 5 2 , - #  . . . .",
" .L  .b  .d t  . . . . . . . . .",
" .Y  .C  .k  . . . . . . . . . .",
" .! ^ P Z m  .i 4 6  . . . . . .",
" .` ) ~ F A  .s 9 0  . . . . . .",
" .'  .R  .S  . . . . . . . . . .",
" .[  .Q  .H C  . . . . . . . . .",
" . .[  .W  .J N x h a  . . . . .",
" . .{ |  .T U  . . .l r q  . . .",
" . . .[ ]  ./ K V v z f w  . . .",
" . . . .} ` _ ( I G n j p  . . .",
" . . . . . . .E L D M  . . . . ."
};
