/* XPM */
static char *bitcoin32[] = {
/* columns rows colors chars-per-pixel */
"32 32 37 1 ",
"  c #1F4674",
". c #1F4D7D",
"X c #224674",
"o c #254876",
"O c #284A77",
"+ c #234C7A",
"@ c #22507F",
"# c #2A507D",
"$ c #1F5282",
"% c #235383",
"& c #295583",
"* c #235689",
"= c #245A8D",
"- c #295B8D",
"; c #235E91",
": c #2A5F91",
"> c #1F649B",
", c #1F689F",
"< c #236195",
"1 c #296294",
"2 c #22659A",
"3 c #286598",
"4 c #23699E",
"5 c #226CA3",
"6 c #286EA4",
"7 c #236FA9",
"8 c #2770A7",
"9 c #2970A7",
"0 c #2572AB",
"q c #2974AC",
"w c #2576B1",
"e c #2B77B0",
"r c #2579B5",
"t c #2A79B4",
"y c #267CB8",
"u c #2B7EB9",
"i c None",
/* pixels */
"iiiiiiiiiiiiiiiiiiiiiiiiiiiiiiii",
"iiiiiiiiiiii=%$....+o+iiiiiiiiii",
"iiiiiiiiii-*%%%%%&+++  XOiiiiiii",
"iiiiiiii:=*=-iiiiiiiii+XXXiiiiii",
"iiiiiii<;;1iii-*%%&%iiiio Xiiiii",
"iiiiii<<1iii-*%$$....+#iiOoiiiii",
"iiiii2>2ii1===-iiii&+.++iiiiiiii",
"iiii5>2ii<=;:iiiiiiii&. +iiiiiii",
"iii6>5ii2;<iii-**%%%*+.#iiiiiiii",
"iii55ii2>3ii1===**%$$.&iiiiiiiii",
"iiq56i6>2ii<;;1iiiii%&iiiiiiiiii",
"ii05ii5>ii2<1iiiiiiiiiiiiiiiiiii",
"ii07ii55ii><iiiiiiiiiiiiiiiiiiii",
"ii0qi856i5>iiiii::iiiiiiiiiiiiii",
"itqqi65ii42iiii;;==iiiiiiiiiiiii",
"it0qiq5ii,5iii3;;==-iiiiiiiiiiii",
"itwqiq5ii>5iii3>;;$;iiiiiiiiiiii",
"itwti00ii55iiii<;;;iiiiiiiiiiiii",
"iiwtiq0qi65iiiii33iiiiiiiiiiiiii",
"iirrii00iq55iiiiiiiiiiiiiiiiiiii",
"iiyriiq0ii655iiiiiiiiiiiiiiiiiii",
"iiurtit00ii5556iiiii;1iiiiiiiiii",
"iiirriiq0qii65>4222;;;iiiiiiiiii",
"iiiuyriiw0qiii555>2<3iiiiiiiiiii",
"iiiiyrtiiq00qiiiiiiiii1=:iiiiiii",
"iiiiiyrtiiq00566iii42<;;;:iiiiii",
"iiiiiiyrtiii06555>>>222i;=:iiiii",
"iiiiiiirrrtiiiq06564iiii1;=iiiii",
"iiiiiiiiyrwqqiiiiiiiii2<<;iiiiii",
"iiiiiiiiiitwq000q6652>223iiiiiii",
"iiiiiiiiiiiitq00755554iiiiiiiiii",
"iiiiiiiiiiiiiiiiiiiiiiiiiiiiiiii"
};
