/* XPM */
static char *bitcoin64[] = {
/* columns rows colors chars-per-pixel */
"64 64 65 1 ",
"  c #1F4573",
". c #1F4877",
"X c #1E4C7C",
"o c #224674",
"O c #254977",
"+ c #294976",
"@ c #224B7A",
"# c #2A4D7A",
"$ c #24507F",
"% c #2B517E",
"& c #32527D",
"* c #1E4F80",
"= c #1E5283",
"- c #1F5F94",
"; c #235484",
": c #2A5583",
"> c #2B5887",
", c #225689",
"< c #235A8D",
"1 c #2A5B8C",
"2 c #315682",
"3 c #315A86",
"4 c #325D8C",
"5 c #385F8B",
"6 c #225D92",
"7 c #2A5E90",
"8 c #1F6196",
"9 c #1E649B",
"0 c #1E689F",
"q c #34608E",
"w c #226195",
"e c #2B6294",
"r c #22659B",
"t c #2A669A",
"y c #23689E",
"u c #2B6A9D",
"i c #336394",
"p c #326798",
"a c #336A9B",
"s c #386C9C",
"d c #1F69A1",
"f c #226CA4",
"g c #2A6EA3",
"h c #236FA8",
"j c #306FA3",
"k c #386FA0",
"l c #2C70A6",
"z c #2472AC",
"x c #2C74AB",
"c c #2E78AF",
"v c #3373A6",
"b c #3275AB",
"n c #3478AE",
"m c #3C7BAF",
"M c #2476B2",
"N c #2A77B1",
"B c #2379B5",
"V c #2C7AB4",
"C c #267CB8",
"Z c #2B7EB9",
"A c #337BB3",
"S c #387BB1",
"D c #307EB8",
"F c #3381BA",
"G c None",
/* pixels */
"GGGGGGGGGGGGGGGGGGGGGGGGGGGGGGGGGGGGGGGGGGGGGGGGGGGGGGGGGGGGGGGG",
"GGGGGGGGGGGGGGGGGGGGGGGGGGGGGGG3:;3$%:2GGGGGGGGGGGGGGGGGGGGGGGGG",
"GGGGGGGGGGGGGGGGGGGGGGGGGG1>;==X@XXX.@O@@#%GGGGGGGGGGGGGGGGGGGGG",
"GGGGGGGGGGGGGGGGGGGGGGG1,;====XXXXXXX.@@.  @O#GGGGGGGGGGGGGGGGGG",
"GGGGGGGGGGGGGGGGGGGGi<<=;=====X=X$X$XX.@@ .  o@OGGGGGGGGGGGGGGGG",
"GGGGGGGGGGGGGGGGGGp1<,,,,=;;;,>>>3q3:%%@O@ .    o#GGGGGGGGGGGGGG",
"GGGGGGGGGGGGGGGGG7<<<,,,<114GGGGGGGGGGGGG2%@    o o+GGGGGGGGGGGG",
"GGGGGGGGGGGGGGGp76<<<,11GGGGGGGGGGGGGGGGGGGG2@oo    +GGGGGGGGGGG",
"GGGGGGGGGGGGGGt6<6<-,7GGGGGGGGGG4:;:3GGGGGGGGGG#o   oo&GGGGGGGGG",
"GGGGGGGGGGGGGt66667eGGGGGGG41,,;;=*XX;;@:2GGGGGG&+ o  +GGGGGGGGG",
"GGGGGGGGGGGGt8866wpGGGGGi1<,;======XXX*XX@@:GGGGGG+o oGGGGGGGGGG",
"GGGGGGGGGGGt888weGGGGGp1<,=,,,======*=X@XXX.@%GGGGG&+GGGGGGGGGGG",
"GGGGGGGGGGyr88rtGGGGGe<<,,-;,,>11>1:>;;@XXXX..@%GGGGGGGGGGGGGGGG",
"GGGGGGGGGt9988rGGGGp76<<6,<1iGGGGGGGGGGG:$@.X...#GGGGGGGGGGGGGGG",
"GGGGGGGGly999tGGGGt6-<<<77GGGGGGGGGGGGGGGG3$X...@%GGGGGGGGGGGGGG",
"GGGGGGGGf999yGGGGt66--7eGGGGGGGGGq4GGGGGGGG:X.X@OGGGGGGGGGGGGGGG",
"GGGGGGGgd9dyGGGGtr86-epGGGGGi77,,,;;;;;1GG>*X.X#GGGGGGGGGGGGGGGG",
"GGGGGGbfd9dgGGGtr8w6wGGGGGi7<,=,,=====;X;;XXXX$GGGGGGGGGGGGGGGGG",
"GGGGGGgdddgGGGgr888rGGGGGe<,<,,,=<;;====X=XXX;GGGGGGGGGGGGGGGGGG",
"GGGGGbfddfGGGGrr88yGGGGp7<<-,<<111,1,;=;=X*X:GGGGGGGGGGGGGGGGGGG",
"GGGGGlfddgGGGg99rrGGGGt7-<<<1iGGGGGGGG4,;X=:GGGGGGGGGGGGGGGGGGGG",
"GGGGGzffgGGGGf999uGGGuw--77eGGGGGGGGGGGGG,>GGGGGGGGGGGGGGGGGGGGG",
"GGGGxhdhgGGGg990yGGGjww-6wpGGGGGGGGGGGGGGGGGGGGGGGGGGGGGGGGGGGGG",
"GGGGxzdhxGGGfd0yjGGGr8w8rGGGGGGGGGGGGGGGGGGGGGGGGGGGGGGGGGGGGGGG",
"GGGGzffzGGGldddyGGGu988rGGGGGGGGGGGGGGGGGGGGGGGGGGGGGGGGGGGGGGGG",
"GGGAzzhzGGGgdddlGGGy888uGGGGGGGGGGGGGGGGGGGGGGGGGGGGGGGGGGGGGGGG",
"GGGnzghxGGGgddfGGGgr99rGGGGGGGGGGGiGGGGGGGGGGGGGGGGGGGGGGGGGGGGG",
"GGGNzzznGGGfddgGGGg99ruGGGGGGGGe76<<1GGGGGGGGGGGGGGGGGGGGGGGGGGG",
"GGGNzzzAGGbffdlGGGy999GGGGGGGGw<-<,-<<GGGGGGGGGGGGGGGGGGGGGGGGGG",
"GGGNzzxGGGxfhflGGGf09yGGGGGGGt66<<<<<,1GGGGGGGGGGGGGGGGGGGGGGGGG",
"GGGNzzzGGGxhdfnGGlf90uGGGGGGGw666<<<<,<iGGGGGGGGGGGGGGGGGGGGGGGG",
"GGGNMzMGGGAfhhnGGl900gGGGGGGsww6666<<<,iGGGGGGGGGGGGGGGGGGGGGGGG",
"GGGMMzMGGGnhhgnGGgdd0lGGGGGGsw---<<6<<<iGGGGGGGGGGGGGGGGGGGGGGGG",
"GGGVMMxGGGxhhhnGGxdd0gGGGGGGGr86--6<<<<GGGGGGGGGGGGGGGGGGGGGGGGG",
"GGGVMzNGGGNhhhxGGGdd0gGGGGGGGtw-6-<6<<7GGGGGGGGGGGGGGGGGGGGGGGGG",
"GGGCMMMAGGczhhxGGGgdd0GGGGGGGGtw---<6eGGGGGGGGGGGGGGGGGGGGGGGGGG",
"GGGVMMMAGGGxdzxGGGldddlGGGGGGGGtww6eeGGGGGGGGGGGGGGGGGGGGGGGGGGG",
"GGGDBMMVGGGxzzzGGGxffdfGGGGGGGGGGGGGGGGGGGGGGGGGGGGGGGGGGGGGGGGG",
"GGGFMMMNGGGNzzzxGGGgddflGGGGGGGGGGGGGGGGGGGGGGGGGGGGGGGGGGGGGGGG",
"GGGGCBMCGGGAzzzxGGGlff0fGGGGGGGGGGGGGGGGGGGGGGGGGGGGGGGGGGGGGGGG",
"GGGGZMMBAGGGMzzzSGGGgfddfGGGGGGGGGGGGGGGGGGGGGGGGGGGGGGGGGGGGGGG",
"GGGGFCBMVGGGNzzzNGGGbfdddgxGGGGGGGGGGGGGGGGGGGGGGGGGGGGGGGGGGGGG",
"GGGGGCBBCGGGGzzzzAGGGbhfdddlGGGGGGGGGGGGp7eGGGGGGGGGGGGGGGGGGGGG",
"GGGGGZBMMZGGGAzzzzGGGGlfddddfgGGGGGGGGaw6-7eGGGGGGGGGGGGGGGGGGGG",
"GGGGGFCBBBGGGGNMzzxGGGGbgddd00yftfrrrrw-66<6iGGGGGGGGGGGGGGGGGGG",
"GGGGGGCBBBVGGGAzzzzzGGGGGgddd0999r98rw86867tGGGGGGGGGGGGGGGGGGGG",
"GGGGGGFCBBCZGGGAMzzzxGGGGGxgddy99999888wwtGGGGGGGGGGGGGGGGGGGGGG",
"GGGGGGGZBBMVGGGGNzzzhxnGGGGGGgfff9r9rrruGGGGGGeeGGGGGGGGGGGGGGGG",
"GGGGGGGGCBBBCGGGGAzzzzhxGGGGGGGGGvvGGGGGGGGGp76<7GGGGGGGGGGGGGGG",
"GGGGGGGGFCBBBZGGGGNNzzzhlxGGGGGGGGGGGGGGGGGt666<<7GGGGGGGGGGGGGG",
"GGGGGGGGGZBBBBVGGGGAzzzhhfgzxGGGGGGGGGGGutw6---<<<7GGGGGGGGGGGGG",
"GGGGGGGGGGZCBBMZGGGGGxzzhhhffhglgggggyy98888-6e<66<7GGGGGGGGGGGG",
"GGGGGGGGGGGZBBBMNGGGGGAxzhfffffdff999999988wwtst6<<<7GGGGGGGGGGG",
"GGGGGGGGGGGGZBBBMCAGGGGGAxzhhddfddddd9999rytGGGGi66<<<GGGGGGGGGG",
"GGGGGGGGGGGGGZBBMMCNGGGGGGGbxzgfddddyyyftuGGGGGGp66<<<eGGGGGGGGG",
"GGGGGGGGGGGGGGZBCMMMBAGGGGGGGGGGbgdgvGGGGGGGGGGtw66<<7iGGGGGGGGG",
"GGGGGGGGGGGGGGGFCBMMzMzNGGGGGGGGGGGGGGGGGGGGutr-6-7<eGGGGGGGGGGG",
"GGGGGGGGGGGGGGGGGFCMMMMzxNxGGGGGGGGGGGGGGggr8r86-6wtGGGGGGGGGGGG",
"GGGGGGGGGGGGGGGGGGFVMMMMMzzzxxxxxSSnlggfy999898wwtGGGGGGGGGGGGGG",
"GGGGGGGGGGGGGGGGGGGGFVMzMzzzzzhhgdhgfdf9d99998yrGGGGGGGGGGGGGGGG",
"GGGGGGGGGGGGGGGGGGGGGGGVMzzzzzzfhdffdddd099yytGGGGGGGGGGGGGGGGGG",
"GGGGGGGGGGGGGGGGGGGGGGGGGGANxzzhzhhfffdffggGGGGGGGGGGGGGGGGGGGGG",
"GGGGGGGGGGGGGGGGGGGGGGGGGGGGGGGnxzxllbbGGGGGGGGGGGGGGGGGGGGGGGGG",
"GGGGGGGGGGGGGGGGGGGGGGGGGGGGGGGGGGGGGGGGGGGGGGGGGGGGGGGGGGGGGGGG"
};
