/* XPM */
static char *bitcoin48[] = {
/* columns rows colors chars-per-pixel */
"48 48 51 1 ",
"  c #1F4574",
". c #1F4877",
"X c #1E4D7C",
"o c #214573",
"O c #244876",
"+ c #2A4976",
"@ c #224C7B",
"# c #294D7A",
"$ c #23507F",
"% c #2B517E",
"& c #1E4F80",
"* c #1F5283",
"= c #235484",
"- c #2B5684",
"; c #2C5987",
": c #225689",
"> c #235A8D",
", c #2B5B8C",
"< c #225E92",
"1 c #2B5E90",
"2 c #1F6196",
"3 c #1E649B",
"4 c #1E689F",
"5 c #236195",
"6 c #2C6294",
"7 c #23659A",
"8 c #2B669A",
"9 c #23689E",
"0 c #2B699D",
"q c #306496",
"w c #316798",
"e c #30699B",
"r c #1F69A1",
"t c #236CA4",
"y c #2A6EA4",
"u c #246FA8",
"i c #2C70A6",
"p c #2472AC",
"a c #2C74AB",
"s c #2E78AF",
"d c #3076AE",
"f c #2376B2",
"g c #2B77B0",
"h c #2479B5",
"j c #2B7AB4",
"k c #277CB8",
"l c #2C7EB9",
"z c #317BB3",
"x c #2F80BA",
"c c #3080B9",
"v c None",
/* pixels */
"vvvvvvvvvvvvvvvvvvvvvvvvvvvvvvvvvvvvvvvvvvvvvvvv",
"vvvvvvvvvvvvvvvvvvvvv;-==$@@$%#vvvvvvvvvvvvvvvvv",
"vvvvvvvvvvvvvvvvv,,=**XXXXXXX.OOO#vvvvvvvvvvvvvv",
"vvvvvvvvvvvvvvv,>::****=@=@X@...  oO#vvvvvvvvvvv",
"vvvvvvvvvvvvv6>>:::-:,vvvvvvv-##O.  oOvvvvvvvvvv",
"vvvvvvvvvvvv6>>>>,1vvvvvvvvvvvvvv#O ooo+vvvvvvvv",
"vvvvvvvvvv8<<>>1vvvvvvv,;==--vvvvvv#o   +vvvvvvv",
"vvvvvvvvv05<<<qvvvv,,:=**&*&@X@-vvvvv+o Ovvvvvvv",
"vvvvvvvvy5226vvvv1>::===***XXXXXX@-vvv#+vvvvvvvv",
"vvvvvvv07275vvv6<>>>::>,,;;--=XX..O#vvvvvvvvvvvv",
"vvvvvvv3378vvv6<>>>,vvvvvvvvvvv-$X..#vvvvvvvvvvv",
"vvvvvv9439vvv8<<<6vvvvvvvvvvvvvv-X.O#vvvvvvvvvvv",
"vvvvvy447vvv82<56vvvv1,>>::*=-v;*X.#vvvvvvvvvvvv",
"vvvvvt49vvv83258vvv6>>:::******XX@=vvvvvvvvvvvvv",
"vvvvirrtvvy3320vvv6>>>>>>-:-=**X@=vvvvvvvvvvvvvv",
"vvvvuruvvv7338vvv<<<<1vvvvvvv,=*=vvvvvvvvvvvvvvv",
"vvvautyvvy449vvv52<<vvvvvvvvvvv,vvvvvvvvvvvvvvvv",
"vvvaruavvt47vvv8255vvvvvvvvvvvvvvvvvvvvvvvvvvvvv",
"vvvpuuvvit49vv0375vvvvvvvvvvvvvvvvvvvvvvvvvvvvvv",
"vvvpuavvyrtyvv7270vvvvvvvvvvvvvvvvvvvvvvvvvvvvvv",
"vvzppavvuttvvv737vvvvvv61>>1vvvvvvvvvvvvvvvvvvvv",
"vvsppdvvuttvvy440vvvvv6<<>>>,vvvvvvvvvvvvvvvvvvv",
"vvgppzvvuryvvt44yvvvvv<<><>>>vvvvvvvvvvvvvvvvvvv",
"vvjppvvvuuavvt49vvvvve5<<>>>:6vvvvvvvvvvvvvvvvvv",
"vvjfpvvvuuavvtr4vvvvve22<<<>>1vvvvvvvvvvvvvvvvvv",
"vvjfpzvvpuuvvyr4ivvvvv5<<<><>vvvvvvvvvvvvvvvvvvv",
"vvjffzvvpupvvitryvvvvv852<<<6vvvvvvvvvvvvvvvvvvv",
"vvlffzvvauuvvvtrtvvvvvv05566vvvvvvvvvvvvvvvvvvvv",
"vvvffjvvsppavvuttyvvvvvvvvvvvvvvvvvvvvvvvvvvvvvv",
"vvvkhhvvzppavvitrtvvvvvvvvvvvvvvvvvvvvvvvvvvvvvv",
"vvvkhhzvvpppvvvutrtvvvvvvvvvvvvvvvvvvvvvvvvvvvvv",
"vvvlhhjvvgppavvvu9ttvvvvvvvvvvvqvvvvvvvvvvvvvvvv",
"vvvvkhhvvvpppsvvvut47tvvvvvvv8<<1vvvvvvvvvvvvvvv",
"vvvvkhhhvvzappdvvvttr44997787<<<<vvvvvvvvvvvvvvv",
"vvvvvkhhlvvjpppsvvvyt9r433322255vvvvvvvvvvvvvvvv",
"vvvvvkhhkvvvgpupsvvvvit9743378vvvvvqvvvvvvvvvvvv",
"vvvvvvkhhjvvvgppuavvvvvvvvvvvvvvv65>,vvvvvvvvvvv",
"vvvvvvvkhhjvvvspuuuaavvvvvvvvvv85<<>>6vvvvvvvvvv",
"vvvvvvvlhhhkvvvjppuuuuuyyy0t07525<5<<>6vvvvvvvvv",
"vvvvvvvvxhhhjvvvvsputttttrr34332750q<>>,vvvvvvvv",
"vvvvvvvvvxkhhfjvvvvsauutr9494798vvvv6<<>1vvvvvvv",
"vvvvvvvvvvxkhffjvvvvvvvayttyyvvvvvv65<>>1vvvvvvv",
"vvvvvvvvvvvvkhfffazvvvvvvvvvvvvvv0725<<qvvvvvvvv",
"vvvvvvvvvvvvvjkfffppasvvvvvvvyt7332226vvvvvvvvvv",
"vvvvvvvvvvvvvvvzhppppppuuutttr4337388vvvvvvvvvvv",
"vvvvvvvvvvvvvvvvvzjgppuuuuttrr4479vvvvvvvvvvvvvv",
"vvvvvvvvvvvvvvvvvvvvvsaaauutyyyvvvvvvvvvvvvvvvvv",
"vvvvvvvvvvvvvvvvvvvvvvvvvvvvvvvvvvvvvvvvvvvvvvvv"
};
