/* XPM */
static char *bitcoin40[] = {
/* columns rows colors chars-per-pixel */
"40 40 48 1 ",
"  c #1F4574",
". c #1F4877",
"X c #1F4C7C",
"o c #224674",
"O c #254977",
"+ c #234C7B",
"@ c #2A4D7A",
"# c #25517F",
"$ c #2C527F",
"% c #1F4F80",
"& c #1E5182",
"* c #235484",
"= c #295583",
"- c #2B5987",
"; c #225688",
": c #235A8D",
"> c #2A5C8D",
", c #315A87",
"< c #225E92",
"1 c #2A5E91",
"2 c #1F6196",
"3 c #1E659B",
"4 c #1E689F",
"5 c #236196",
"6 c #2B6294",
"7 c #22659A",
"8 c #2B6699",
"9 c #23699F",
"0 c #2B699D",
"q c #306596",
"w c #1F69A1",
"e c #236CA3",
"r c #296DA2",
"t c #246FA8",
"y c #2C71A7",
"u c #2472AB",
"i c #2B74AC",
"p c #3077AD",
"a c #3378AE",
"s c #2476B2",
"d c #2977B0",
"f c #2479B5",
"g c #2B7AB4",
"h c #267CB8",
"j c #2C7EB9",
"k c #307AB2",
"l c #3181BB",
"z c None",
/* pixels */
"zzzzzzzzzzzzzzzzzzzzzzzzzzzzzzzzzzzzzzzz",
"zzzzzzzzzzzzzzzz-;**X#++++@zzzzzzzzzzzzz",
"zzzzzzzzzzzzz>-*&#XXXXXOOO..O@zzzzzzzzzz",
"zzzzzzzzzzz6::;;*;;-=,==#+O.ooo@zzzzzzzz",
"zzzzzzzzzz6:::>,zzzzzzzzzzz@Oo  ozzzzzzz",
"zzzzzzzzz5::<zzzzzz-;***zzzzz@o oozzzzzz",
"zzzzzzz055<6zzz1:;*&*X%X+++=zzzOoozzzzzz",
"zzzzzz0755zzz6<;;;;****#*XXO+zzzzzzzzzzz",
"zzzzzz935zzz5<::1,zzzzzzz*+X.++zzzzzzzzz",
"zzzzz933zzz5<<1zzzzzzzzzzzz#..+zzzzzzzzz",
"zzzze99rzz75<6zzz1<;;*;*;-=XX$zzzzzzzzzz",
"zzzze4ezz7358zzq1<;;;;&&#X%X#zzzzzzzzzzz",
"zzzyeezzr338zz8<<:>>zzz-*&+*zzzzzzzzzzzz",
"zzztetzz939zz85<<zzzzzzzz--zzzzzzzzzzzzz",
"zzztezzr49zz0525zzzzzzzzzzzzzzzzzzzzzzzz",
"zziutzze4ezz735zzzzzzzzzzzzzzzzzzzzzzzzz",
"zziuyzzewyz0320zzzzzzzzzzzzzzzzzzzzzzzzz",
"zzuuizzeezz939zzzzz6:::1zzzzzzzzzzzzzzzz",
"zzuugzittzze49zzzz6<::;:zzzzzzzzzzzzzzzz",
"zzsuizittzze40zzzz5<<<::>zzzzzzzzzzzzzzz",
"zzhudzaetzze4rzzzz5<<<::1zzzzzzzzzzzzzzz",
"zzsskziutzze4ezzzz75<<<:zzzzzzzzzzzzzzzz",
"zzgsgzzuuzzrwezzzzz75<<8zzzzzzzzzzzzzzzz",
"zzhsdzzitizpeerzzzzzzzzzzzzzzzzzzzzzzzzz",
"zzjsfzziuizzteezzzzzzzzzzzzzzzzzzzzzzzzz",
"zzzfszzguuzzyewezzzzzzzzzzzzzzzzzzzzzzzz",
"zzzhfdzzuuizzyewezzzzzzzz86zzzzzzzzzzzzz",
"zzzjfhzzguuizzyew99rzzz85<<6zzzzzzzzzzzz",
"zzzzffhzzduuizzyew4433235<6zzzzzzzzzzzzz",
"zzzzjffjzzduuizzzye9495778zzzqzzzzzzzzzz",
"zzzzzhffzzzduuyzzzzzzzzzzzz8<:1zzzzzzzzz",
"zzzzzzffhzzziuttuyzzzzzzz055<<:1zzzzzzzz",
"zzzzzzjhfhzzzauuwuteee97332<66<&6zzzzzzz",
"zzzzzzzlfsfgzzziyuewww443578zz6:<<zzzzzz",
"zzzzzzzzzhssdzzzzzzyteerzzzzz85<:1zzzzzz",
"zzzzzzzzzzhhssigzzzzzzzzzzz075<<6zzzzzzz",
"zzzzzzzzzzzjgsusuiiypayree732258zzzzzzzz",
"zzzzzzzzzzzzzjguuuuueeee494770zzzzzzzzzz",
"zzzzzzzzzzzzzzzzkiiuteteeerzzzzzzzzzzzzz",
"zzzzzzzzzzzzzzzzzzzzzzzzzzzzzzzzzzzzzzzz"
};
