/* XPM */
static char *bitcoin24[] = {
/* columns rows colors chars-per-pixel */
"24 24 172 2 ",
"   c #214472",
".  c #224573",
"X  c #214675",
"o  c #224877",
"O  c #274875",
"+  c #244876",
"@  c #254977",
"#  c #214978",
"$  c #204A79",
"%  c #214B79",
"&  c #234A78",
"*  c #214C7A",
"=  c #274E7B",
"-  c #204D7C",
";  c #214D7C",
":  c #224D7C",
">  c #204E7E",
",  c #214F7F",
"<  c #244E7D",
"1  c #254F7D",
"2  c #21507F",
"3  c #23507F",
"4  c #215080",
"5  c #205081",
"6  c #205181",
"7  c #215283",
"8  c #205383",
"9  c #215383",
"0  c #225282",
"q  c #255280",
"w  c #245281",
"e  c #245382",
"r  c #275483",
"t  c #215485",
"y  c #235484",
"u  c #235585",
"i  c #225586",
"p  c #235587",
"a  c #245686",
"s  c #225688",
"d  c #235789",
"f  c #265889",
"g  c #24588A",
"h  c #24588B",
"j  c #26598A",
"k  c #225A8D",
"l  c #225B8F",
"z  c #24598C",
"x  c #245A8D",
"c  c #255B8D",
"v  c #275B8D",
"b  c #235C8F",
"n  c #245C8F",
"m  c #255C8F",
"M  c #275C8E",
"N  c #275D8F",
"B  c #28598A",
"V  c #285B8D",
"C  c #295D8F",
"Z  c #215C90",
"A  c #235D91",
"S  c #205D92",
"D  c #235F92",
"F  c #225F93",
"G  c #235F93",
"H  c #245D90",
"J  c #275D90",
"K  c #245E91",
"L  c #245F92",
"P  c #255F93",
"I  c #285E90",
"U  c #285F91",
"Y  c #216195",
"T  c #236094",
"R  c #236195",
"E  c #226196",
"W  c #216297",
"Q  c #226397",
"!  c #256094",
"~  c #246195",
"^  c #266094",
"/  c #266295",
"(  c #256297",
")  c #276296",
"_  c #296193",
"`  c #2B6193",
"'  c #296194",
"]  c #216398",
"[  c #226499",
"{  c #21649A",
"}  c #20659B",
"|  c #22649A",
" . c #22659B",
".. c #23659B",
"X. c #21669B",
"o. c #266498",
"O. c #25669A",
"+. c #20669C",
"@. c #21669C",
"#. c #22669C",
"$. c #20679E",
"%. c #20689F",
"&. c #21699F",
"*. c #22689E",
"=. c #22689F",
"-. c #24689E",
";. c #246A9F",
":. c #2169A0",
">. c #2169A1",
",. c #216AA1",
"<. c #226AA1",
"1. c #216BA2",
"2. c #236AA2",
"3. c #226BA3",
"4. c #236BA3",
"5. c #236CA2",
"6. c #226CA3",
"7. c #236CA3",
"8. c #246CA2",
"9. c #236DA4",
"0. c #236DA5",
"q. c #236EA6",
"w. c #246DA4",
"e. c #266EA4",
"r. c #276EA4",
"t. c #246EA7",
"y. c #246FA7",
"u. c #266EA6",
"i. c #276FA6",
"p. c #2470A9",
"a. c #2570A9",
"s. c #2771A9",
"d. c #2571AA",
"f. c #2572AB",
"g. c #2672AB",
"h. c #2572AC",
"j. c #2573AC",
"k. c #2673AC",
"l. c #2773AC",
"z. c #2674AD",
"x. c #2774AD",
"c. c #2774AE",
"v. c #2675AF",
"b. c #2775AF",
"n. c #2971A9",
"m. c #2972AA",
"M. c #2873AC",
"N. c #2973AC",
"B. c #2B74AC",
"V. c #2875AF",
"C. c #2576B0",
"Z. c #2776B0",
"A. c #2777B1",
"S. c #2577B3",
"D. c #2777B2",
"F. c #2578B3",
"G. c #2578B4",
"H. c #2479B5",
"J. c #2579B5",
"K. c #2778B4",
"L. c #2679B5",
"P. c #2479B6",
"I. c #2579B6",
"U. c #257AB6",
"Y. c #267AB6",
"T. c #267BB7",
"R. c #2978B2",
"E. c #2978B3",
"W. c #287AB6",
"Q. c #287BB6",
"!. c #297DB8",
"~. c None",
/* pixels */
"~.~.~.~.~.~.~.~.~.~.~.r q 1 ~.~.~.~.~.~.~.~.~.~.",
"~.~.~.~.~.~.~.~.j i 8 5 , ; % # o @ ~.~.~.~.~.~.",
"~.~.~.~.~.~.U x g f ~.~.~.~.~.~.& X . O ~.~.~.~.",
"~.~.~.~.~.~ A I ~.~.B a 7 4 3 ~.~.~.+   ~.~.~.~.",
"~.~.~.~.| E ~.~.J z d p y 0 2 - * = ~.~.~.~.~.~.",
"~.~.~.*.} ~.~.G H C ~.~.~.~.~.~.: $ ~.~.~.~.~.~.",
"~.~.r.%.~.~.] R ~.~.M h s t 9 e > < ~.~.~.~.~.~.",
"~.~.9.5.~.#.{ ~.~.K m V ~.~.u 6 w ~.~.~.~.~.~.~.",
"~.~.q.~.~.$.~.~.E ! ~.~.~.~.~.~.~.~.~.~.~.~.~.~.",
"~.N.a.~.7.<.~. .[ ~.~.~.~.~.~.~.~.~.~.~.~.~.~.~.",
"~.x.l.~.0.e.~.+.~.~.~.' n c ~.~.~.~.~.~.~.~.~.~.",
"~.b.x.~.t.~.~.%.~.~.~.F Z k v ~.~.~.~.~.~.~.~.~.",
"~.A.Z.~.a.~.~.>.~.~.~.Y S l N ~.~.~.~.~.~.~.~.~.",
"~.K.D.~.f.m.~.1.~.~.~.o.R P ~.~.~.~.~.~.~.~.~.~.",
"~.Q.F.~.x.g.~.w.4.~.~.~.~.~.~.~.~.~.~.~.~.~.~.~.",
"~.~.H.~.~.h.~.~.6.8.~.~.~.~.~.~.~.~.~.~.~.~.~.~.",
"~.~.U.L.~.c.k.~.~.3.,.;.~.~.( D ` ~.~.~.~.~.~.~.",
"~.~.!.P.~.~.z.g.~.~.8.&.+.{ Q ) ~.~.~.~.~.~.~.~.",
"~.~.~.T.I.~.~.k.d.n.~.~.~.~.~.~./ A I ~.~.~.~.~.",
"~.~.~.~.T.J.~.~.M.p.q.w.2.=.X.] E ^ H N ~.~.~.~.",
"~.~.~.~.~.Y.G.E.~.~.n.u.1.:.-.~.~.~.L b ~.~.~.~.",
"~.~.~.~.~.~.W.S.C.V.~.~.~.~.~.~...W T _ ~.~.~.~.",
"~.~.~.~.~.~.~.~.R.v.j.a.y.9.,.$.@.O.~.~.~.~.~.~.",
"~.~.~.~.~.~.~.~.~.~.~.B.s.i.~.~.~.~.~.~.~.~.~.~."
};
