/* XPM */
static char *bitcoin128[] = {
/* columns rows colors chars-per-pixel */
"128 128 82 1 ",
"  c #1F4573",
". c #1F4877",
"X c #1E4C7C",
"o c #224573",
"O c #244877",
"+ c #2A4A76",
"@ c #224B7A",
"# c #2C4D7A",
"$ c #304E7A",
"% c #24507F",
"& c #2C517E",
"* c #33527D",
"= c #1E4F80",
"- c #1E5283",
"; c #1F5F94",
": c #214F80",
"> c #225485",
", c #2A5583",
"< c #2C5987",
"1 c #225689",
"2 c #285788",
"3 c #235A8D",
"4 c #2B5C8C",
"5 c #325581",
"6 c #395680",
"7 c #335985",
"8 c #395A85",
"9 c #325D8B",
"0 c #215D92",
"q c #2B5E91",
"w c #1F6196",
"e c #1E649B",
"r c #1E689F",
"t c #35618E",
"y c #3C628C",
"u c #226195",
"i c #2C6294",
"p c #23659A",
"a c #2A6699",
"s c #23699E",
"d c #2C699D",
"f c #336394",
"g c #386594",
"h c #376897",
"j c #3B6997",
"k c #326798",
"l c #346B9C",
"z c #3A6B9B",
"x c #3F709E",
"c c #1F69A1",
"v c #226CA4",
"b c #2B6EA3",
"n c #236FA8",
"m c #326EA1",
"M c #386FA0",
"N c #2C70A6",
"B c #2472AC",
"V c #2B74AB",
"C c #2F78AF",
"Z c #3372A5",
"A c #3A73A4",
"S c #3275AB",
"D c #3A77A9",
"F c #3478AE",
"G c #3A79AD",
"H c #2376B2",
"J c #2A77B0",
"K c #2379B5",
"L c #2C7AB4",
"P c #267CB8",
"I c #2B7EB9",
"U c #337CB3",
"Y c #3A7DB2",
"T c #327FB8",
"R c #41668F",
"E c #41729F",
"W c #2F80B9",
"Q c #3C80B5",
"! c #3581BA",
"~ c #3A83BB",
"^ c #4284B8",
"/ c None",
/* pixels */
"////////////////////////////////////////////////////////////////////////////////////////////////////////////////////////////////",
"////////////////////////////////////////////////////////////////////////////////////////////////////////////////////////////////",
"////////////////////////////////////////////////////////////////////Ry//////////////////////////////////////////////////////////",
"//////////////////////////////////////////////////////////999<<<,>@%,%%.&&&&5*78////////////////////////////////////////////////",
"/////////////////////////////////////////////////////y941>%-X-X-X%=XXXXXXX.@@@@@@@&57///////////////////////////////////////////",
"/////////////////////////////////////////////////f9221>>--%X-X-X=XXXXXX...X....O..O@O##&////////////////////////////////////////",
"///////////////////////////////////////////////9422>--------XXXXX-XXXXXXX.XO@... ...O .@#&*/////////////////////////////////////",
"////////////////////////////////////////////g923>>-------X-X---X=XXXXXXXXX.X..@.... ..  oOO#$6//////////////////////////////////",
"//////////////////////////////////////////f22111-------------X-XXXXXXXXX.X.X...O@.. .. . .o OO#&////////////////////////////////",
"////////////////////////////////////////fq33-1111>;---------X%X--X-%%X%@XXXXX.X..O...  ..   oooo+#//////////////////////////////",
"//////////////////////////////////////hq43-33-1-13>-->>>->->>>,1>%,<<<<,%%&%%@@@@@.o.... .      oO#6////////////////////////////",
"////////////////////////////////////gq331113133---->-->1>>24479y//////////y77,&&@@@@.  ..    o  o o+*///////////////////////////",
"//////////////////////////////////hq033331313-3131112249t////////////////////////85&@@@o.    .      oo+/////////////////////////",
"/////////////////////////////////fi0333331133-113249f////////////////////////////////5&@@..         oooo////////////////////////",
"///////////////////////////////zf0033303333122344t/////////////////////////////////////5&#@O        o  o$$//////////////////////",
"//////////////////////////////ki030333-3313334fg//////////////////////////////////////////5#OO  o   o   o+$/////////////////////",
"/////////////////////////////aq0;3333333;344f///////////////////////////////////////////////*#OO   o o   oo+////////////////////",
"///////////////////////////lau00000030;434h/////////////////t9424<<>>@%22<<,77////////////////*&oo o     ooo$*//////////////////",
"//////////////////////////lau000;3000404i///////////////f942211>>>XX==X>-X%>>%,,77//////////////$$oo       oo$//////////////////",
"/////////////////////////law;;0;03;330ah/////////////f4421>>---------==XX-XXXXXX@%,58////////////6+oo     ooo$//////////////////",
"////////////////////////mduuww;0;000iz////////////f43211>>-----------X-XXX-XX-XXXXXX@,&8///////////6#ooo ooo$///////////////////",
"///////////////////////mawww;00;;0iiz//////////jf423311>>11--11---X-X----XXXXXXXXXXX@@@@&8///////////$Oo  oo////////////////////",
"//////////////////////Zdewwww;w00ia///////////h43331-3-1-11---->------X-X=X-XXXX.XX.X.@@@&*7//////////$+++o/////////////////////",
"/////////////////////lsuwwwwuuwuuz//////////hq3313311131113--->>-------X--XXX-XXXXXXXX....@&&//////////*+*//////////////////////",
"////////////////////msewewwwwwuaz/////////hi43333113--31-31>>11132><<1>>,>%@@XXXXXXX.XX..O..@+*/////////////////////////////////",
"///////////////////Zdeewewewwual/////////iq0;3333331333-22344499t///////99<<2,1%XXXXXX.XX.@..@%&8///////////////////////////////",
"///////////////////deeewwewwup/////////hii03;133131123344qtg//////////////////7<%>%@XXXXX...@..O#5//////////////////////////////",
"//////////////////bpeeeeewwpp/////////zu00333333333334qh/////////////////////////77>@@XXX.X@.....@*/////////////////////////////",
"/////////////////bseeeeeewpa/////////au303030333333qg///////////////////////////////7,%@.X.X..@..o#5////////////////////////////",
"////////////////ZbeereeeeeaA///////Aau033;0033304ff///////////////////////////////////7%X...@....@@5////////////////////////////",
"////////////////bcreeeewevm///////Mdu00;000330qik/////////////////////////////////////9%XXX..@.@@@&/////////////////////////////",
"///////////////Nvcceceeepm///////Aauu0;;;0003ikz///////////////gttf9499tt9///////////y,@X.XXX..@#*//////////////////////////////",
"//////////////Zbcrrcreepb///////Aduuw;0;0;00ih////////////gfq4222311>>->>>>2<7t/////y1@XXXX..X@@5///////////////////////////////",
"//////////////Ncrrrerrpb////////dpwwu;;0;0qa////////////f4443331--1---->----->>2<t/y2@-XXXXXX@#5////////////////////////////////",
"/////////////NbcrrcercvZ///////dpwwwuwu00uk//////////jfq333-3--1111----------XX->24,%XX=XX.XX%5/////////////////////////////////",
"/////////////ncccrcrepb///////dpwwwwwwuuul//////////gi331333-3331-11-1;---------=@X-XXXXXXXX%7//////////////////////////////////",
"////////////Sncccccrsb///////bpewwwwwwuua/////////zq333331131-1-1-31--3----------X=XXX-=XXX>8///////////////////////////////////",
"////////////NbcccccrvZ//////Zdewweeweupk////////hk00333333313311111-3----------X=--=-XXXXX,7////////////////////////////////////",
"///////////Snvvcccevb///////dpeewewewad////////zi0;43003313333132232>>>2>>3---X-====X=X-X,</////////////////////////////////////",
"///////////VvcvcccvbZ//////Zpeeeewewpb////////zu00303333333132444ff424itq<21>->---=--X=@>7//////////////////////////////////////",
"//////////SNvvvcvcvN///////deeeeeeweb////////ai03;003333334qfg/////////////tt21>----X-%>9///////////////////////////////////////",
"//////////VnvvvccvbS//////Nrreeeewpd////////luu000300003qfh///////////////////92>>-X-X27////////////////////////////////////////",
"/////////FVnvvvccvb//////Zbeereeeesl///////lp0;;0000300ih///////////////////////<2>>>,9/////////////////////////////////////////",
"/////////SnvvvvnvbS//////Nvereereed///////luu0;0;0040qf///////////////////////////4,29//////////////////////////////////////////",
"/////////VBcncBcvN//////DberrereedZ//////msu;;u;0000iz//////////////////////////////////////////////////////////////////////////",
"////////YBvBcnvvnS//////Nvrrreeesb//////Aduwuww0uuua////////////////////////////////////////////////////////////////////////////",
"////////FNcBcBBcN///////vvrrreerb///////lpwwuww00ua/////////////////////////////////////////////////////////////////////////////",
"////////VBnvBvcBV//////ZdrrrrrrrZ//////mpuwww;uwua//////////////////////////////////////////////////////////////////////////////",
"////////VnnnnnnnG//////Nvccrrrrd///////dwwewwwuud///////////////////////////////////////////////////////////////////////////////",
"///////YVnnnncnn//////DnccrcrrbN//////mswewewwuaM///////////////////////////////////////////////////////////////////////////////",
"///////UHnnnncBV//////ZnccccrrbZ//////deewwrwwpl////////////////////////////////////////////////////////////////////////////////",
"///////SHcBnnnBS//////Nvccccrcb//////bserwwweed/////////////////////////////////////////////////////////////////////////////////",
"///////SBBcBnnBF//////NvvvccrvZ//////dpeewwwusl/////////////////////////////////////////////////////////////////////////////////",
"///////JBBHnnnNY/////SNcccccrbS/////Abeeeerwpd//////////////////hkfqqqtf////////////////////////////////////////////////////////",
"//////YVBBBnBnN//////Znvcvvcvb//////Zsreeeeesl/////////////////fiq03334qff//////////////////////////////////////////////////////",
"//////UHBBBBnBC//////VnvvccrvN//////beereewpd////////////////zi03333333114i/////////////////////////////////////////////////////",
"//////UBBBBBBBC//////VnvvvcvbN//////berreeepm///////////////ki03;3331;313134////////////////////////////////////////////////////",
"//////UBBBBBBBC//////VnvvvcvnS/////DsreereesZ//////////////k0300330333313313q///////////////////////////////////////////////////",
"//////UBBBBBBBS/////Yncnvvvcb//////Zveeeered//////////////za0;;3333333;113133f//////////////////////////////////////////////////",
"//////LBBHBBBCY/////YBBcvvvvN//////Ncrcrrrpb//////////////d0;03000;33333313134//////////////////////////////////////////////////",
"//////UHHBBHBCY/////SBcnvvvvV//////Zccreeesb/////////////la000000033;3330-3112f/////////////////////////////////////////////////",
"//////UHHBBBBBL/////YNnnnvvnS//////bcrrrrrsm/////////////luw;;0003003333333333q/////////////////////////////////////////////////",
"//////UBBHBHBBC/////YVvvcncnF//////bcrrrresZ/////////////du00;;0;33030033331234/////////////////////////////////////////////////",
"//////LHHBBBBBJ/////YVnnBccBS//////NcrrrerbZ/////////////luuw00;000030333311;3q/////////////////////////////////////////////////",
"//////JHHBBBBVC/////YCBcnvvvC//////bcrrrrrbD/////////////luw;0u;;3;003333333334/////////////////////////////////////////////////",
"//////LJHHHHHHV/////YPcnvvnnF//////nccccrcdZ/////////////luww;;000;30303301331q/////////////////////////////////////////////////",
"//////UHBHHBBJU/////YVcBnnnnF//////bvccrrrdb/////////////lpuw00;0;030003033333i/////////////////////////////////////////////////",
"//////WHHHHBBLQ/////CVnnvnnnV//////ZvccccrvN//////////////awwww;;0;;0300333;34f/////////////////////////////////////////////////",
"//////LKHBHHHJU/////YJnBnvnnV//////Sbrccrrcb//////////////duuw0;;3;0000303033q//////////////////////////////////////////////////",
"//////LJHHHHHJU/////YVBnBnvnN//////Svrccccrv///////////////duuwu;;0;;30330330h//////////////////////////////////////////////////",
"//////LHHHHHHVU//////CHcnBnnNF/////DNvvcccrb///////////////lpuuu;w000000033qh///////////////////////////////////////////////////",
"//////!HHHHHHHL//////JBnBnnnBF//////nvcccrrcZ///////////////dpuuw0;;;03;000k////////////////////////////////////////////////////",
"//////!PKHHHHHU//////SBBBnBnnJ//////VvvccccvN////////////////lauuu;u0;000ih/////////////////////////////////////////////////////",
"//////QPHHHHHHL//////UVBHcnnnC//////SbcvvcccnZ/////////////////daauu0iuaak//////////////////////////////////////////////////////",
"///////PKHHHHnLT/////UJBnBnBnVF/////GNvcvcccvb///////////////////llllkk/////////////////////////////////////////////////////////",
"///////LKHKKHHLU//////CBBBBnnVS//////VvvccvcenZ/////////////////////////////////////////////////////////////////////////////////",
"///////!KKHHHHPL//////UBBBBnnBV//////Sbccvccevb/////////////////////////////////////////////////////////////////////////////////",
"///////!PPHHHHHL//////UVBBBBBnVY//////NnvcvcvvnZ////////////////////////////////////////////////////////////////////////////////",
"///////~KKKKHHHJ~//////JBBBnnnNC//////SnvvccccvbD///////////////////////////////////////////////////////////////////////////////",
"////////KKKKJHHH~//////UBHBBBBnC///////NvcvvcccvN///////////////////////////////////////////////////////////////////////////////",
"////////IPKHKHHHY//////YHBBBBBnBY//////Fnvcvcccvvb//////////////////////////////////////////////////////////////////////////////",
"////////!PKHKKHHL///////JHBBBBBBC///////NbvvvccccvN/////////////////////////////////////////////////////////////////////////////",
"////////~IPKKKHKJT//////CBBBBBBnNU//////SNnvncccccvN////////////////////////////////////////////////////////////////////////////",
"/////////IPHKHKHKI//////YJHBBBBBBC///////SbvccnccccvbS//////////////////////////////////////////////////////////////////////////",
"/////////WPKKKKKHLT//////LJBBBBBBBC///////Fbnvcccccccdb///////////////////////////fqig//////////////////////////////////////////",
"/////////!IPKKKKHKU//////UJBHBBBBBVU///////SnvcvvccccvvbZ///////////////////////za000ih/////////////////////////////////////////",
"//////////WKKKKKHKP~//////UBBBBBBBBV////////NnvcccccccecbbZ///////////////////ma00000qih////////////////////////////////////////",
"//////////WKKKKKKHKL///////LBHBBBnBBU////////NnBccccccvrrrvsbZ/////////////Mlauu0000300ih///////////////////////////////////////",
"///////////WPKKKKKKKI//////YJBBHBBBBBU////////SbvvcvcccrrrcrrsvdbbZdesbmdasap0;000000303i///////////////////////////////////////",
"///////////!PPKKKKKKL///////UHBBBBBBnVC////////FNnvccccccrreerevppsewwupuuu00;0w0000003ii///////////////////////////////////////",
"////////////PKKKKKKKIT//////YLBBBBBBBBVU////////GNnvccccrrrrreeeeeee;ewee;e;0eu;0;;030iah///////////////////////////////////////",
"////////////!KKKKKKKPL///////YJHBBBBBnBBF/////////Sbvvvrcrrrrrceeeeeeeew;ee;ww;w;0;00ik/////////////////////////////////////////",
"/////////////IPPKKKKHLT///////YJBBHBBBBBVC//////////Zbvccccrreceeerreeree;;c;;w0;;uukz//////////////////////////////////////////",
"/////////////!PPKKKKKKPT///////UHBBBBBcBnVS///////////SNbccrrcecereeeeeweee;;;u0uakl////////////////////////////////////////////",
"//////////////PPKKKKKHPL////////JJBBBBBBBnVC////////////ZNbvvprerereerwee;epv0addl///////////afh////////////////////////////////",
"//////////////!IKKKKKKKKT///////YJHBBBBBBnnnCG////////////DZbbvvvespweepppppabm////////////zi43qg///////////////////////////////",
"///////////////!IPPKKKKKKP///////^UHBBBBBnnnnBSG///////////////DZZZZmmZZlZZ///////////////k03030qh//////////////////////////////",
"////////////////IPKPKKKKPP!///////^UBBBBBBBBHnnVF///////////////////////////////////////zi0004030qf/////////////////////////////",
"////////////////!PKKKKKKKKP!///////^LVBBBBBcnnnnVVS///////////////////////////////////lki003030330qg////////////////////////////",
"/////////////////IPKKKKKKKKP~////////UJBBBBHBnnnnvBVF///////////////////////////////lda0;0000030333qh///////////////////////////",
"//////////////////WPPPKKKKKKI/////////YJBBBBBnnncnnBnbVS/////////////////////////Adauuuw0;;030333343qf//////////////////////////",
"///////////////////WPPKKKKKHPPY////////YJBBBBBnnBBccnnnbNNSF//////////////////lddapuu;w0;0;0000003;33qf/////////////////////////",
"///////////////////~PPPPHKKKHHP~/////////LCBBnBnBnnnBcvvnnnNNZVSSZ//////ZZNbddppewwwwwuw0;0;0033300333qf////////////////////////",
"////////////////////WPPPKKKKKHPL~/////////UCVBBnBnBcnncvcvvcvvvnvvvbbbssssppeeewwewwwuw;w0;00u0;03303333g///////////////////////",
"/////////////////////!PPKKKKKKKKLT//////////FCBnnBnnvvBvvvvvccccsvcpcecereeeeeewewe;eww;wwuuzzki;;3333334a//////////////////////",
"//////////////////////!WKKKKKKKKHLU///////////UCBBnvBvvncBvcnvvcveccccccrereeeeeew;e;weuuiaz//za4;;303;334f/////////////////////",
"///////////////////////~PKKKKKKKKHPL~//////////YCCVBnvnvcnnvccvccccvcrecrereeeeeewwep0usad/////xai330333333f////////////////////",
"////////////////////////~WKKKKKKHHKKLY////////////SCBBnBBcnvvvcsccccccrcrreeeeeeepeppslM////////Ea0033033333f///////////////////",
"/////////////////////////!IKKKKKKHHHHJPY////////////YFSNBnnvvvvvvccccceceeceerepssamm////////////hu0400333334f//////////////////",
"//////////////////////////!IKKKKKHHKKHHJU///////////////SVVVNbnnvvccccccvssvsdbbmZ//////////////ki00303033333f//////////////////",
"///////////////////////////~IKKKHKKHHHHHJLU/////////////////SSVVVNbvrvvvNbbNZZ////////////////lau00000333333qg//////////////////",
"/////////////////////////////PKKHHKHKHHHHHHL!///////////////////////////////////////////////Als00000;303300f////////////////////",
"//////////////////////////////!IPKKHHJKHHBHHHJU///////////////////////////////////////////mds0u;;;0003400qk/////////////////////",
"///////////////////////////////!LPKHKKHHHHHBHJBJLU/////////////////////////////////////mdapuu;;u00;;0;;0ih//////////////////////",
"/////////////////////////////////TPPKHHHHHHHBBHBVVJUY////////////////////////////////bdspeuwww0w;00;00ii////////////////////////",
"//////////////////////////////////~IKHKHHHHHHHBBBBBBVCUUY////////////////////////Zbbdpwewwewwue;www0uik/////////////////////////",
"////////////////////////////////////~LPPHHHHBHBHHBBBBBBBBCVSSUG///////////DSZNbbeveeeeeeewwew;wuw0uak///////////////////////////",
"//////////////////////////////////////!LPHHHHHHHBHHBBBBBBBBBNBNVbVSSSSZVbnbvbcvpreeeeeeeeeweeeuuupdz////////////////////////////",
"////////////////////////////////////////ULPKHHBBHHBBHnBBHnnnvvnnvnnBBvnvvvccccecerreeeeeeeww;0pual//////////////////////////////",
"//////////////////////////////////////////YLHHHHnHBHBBBBnBnnBBvvncccvvvvccccccecrrrreeeeeweepvam////////////////////////////////",
"////////////////////////////////////////////QLJCBHBHBBHBBBBnBvnnBccnvvvvvcccccccceceeceewpsddA//////////////////////////////////",
"///////////////////////////////////////////////!LJJCBBHBBBBBBBnncnBcvvvvvcvcccccceerresdvdm/////////////////////////////////////",
"/////////////////////////////////////////////////QULCCBBBBBBnnnvBncnvvvvccvcccccpcsvvbdb////////////////////////////////////////",
"/////////////////////////////////////////////////////QUUJVVBBBBBnnnnvnnvnvvvvvvvvbbZZ///////////////////////////////////////////",
"//////////////////////////////////////////////////////////YYUCCCCNnnNBnnbVVNZSSD////////////////////////////////////////////////",
"////////////////////////////////////////////////////////////////////////////////////////////////////////////////////////////////",
"////////////////////////////////////////////////////////////////////////////////////////////////////////////////////////////////",
"////////////////////////////////////////////////////////////////////////////////////////////////////////////////////////////////"
};
