/* XPM */
static char *bitcoin56[] = {
/* columns rows colors chars-per-pixel */
"56 56 57 1 ",
"  c #1F4573",
". c #1F4877",
"X c #1E4D7C",
"o c #234674",
"O c #234876",
"+ c #2B4B77",
"@ c #224C7A",
"# c #294D7A",
"$ c #314E79",
"% c #26507E",
"& c #2D517E",
"* c #1E4F80",
"= c #1E5283",
"- c #1F5F94",
"; c #225384",
": c #2A5583",
"> c #2C5887",
", c #225689",
"< c #235A8D",
"1 c #2B5C8C",
"2 c #325581",
"3 c #375E89",
"4 c #225E92",
"5 c #2B5E90",
"6 c #1F6197",
"7 c #1E649B",
"8 c #1E689F",
"9 c #38608B",
"0 c #226195",
"q c #2C6294",
"w c #22659A",
"e c #2A669A",
"r c #24689E",
"t c #2B699D",
"y c #316495",
"u c #326798",
"i c #326899",
"p c #1F69A1",
"a c #226CA3",
"s c #2B6EA3",
"d c #236FA8",
"f c #2D71A6",
"g c #2472AC",
"h c #2B74AB",
"j c #3175AB",
"k c #3178AF",
"l c #2476B2",
"z c #2A77B1",
"x c #2479B5",
"c c #2C7AB4",
"v c #267CB8",
"b c #2C7EB9",
"n c #337CB3",
"m c #317FB9",
"M c #2E80BA",
"N c #3480B9",
"B c None",
/* pixels */
"BBBBBBBBBBBBBBBBBBBBBBBBBBBBBBBBBBBBBBBBBBBBBBBBBBBBBBBB",
"BBBBBBBBBBBBBBBBBBBBBBBBB>>:;%;#&:&BBBBBBBBBBBBBBBBBBBBB",
"BBBBBBBBBBBBBBBBBBBBB1>,;X=XXX@X....@#&BBBBBBBBBBBBBBBBB",
"BBBBBBBBBBBBBBBBBBB1,,==;=X=XXXXX.@.O  O#BBBBBBBBBBBBBBB",
"BBBBBBBBBBBBBBBBB5,,,,,==;;;;::%%#@O..   OoBBBBBBBBBBBBB",
"BBBBBBBBBBBBBBBq<<<,,,,>1BBBBBBBBBB2&@OO   o+BBBBBBBBBBB",
"BBBBBBBBBBBBBu5<<<<11BBBBBBBBBBBBBBBBBB#O    o$BBBBBBBBB",
"BBBBBBBBBBBBe444<<1BBBBBBBB>3;;>>BBBBBBBB#O   o+BBBBBBBB",
"BBBBBBBBBBBe0-445BBBBBB3>,,;=X=XX;%%:BBBBBB#ooooBBBBBBBB",
"BBBBBBBBBBt0004qBBBBB5<,,,=====XXXXX.@&>BBBB+ooBBBBBBBBB",
"BBBBBBBBBe7060iBBBB5<<,,,,;,;,,;;X@XXX.@#BBBBBBBBBBBBBBB",
"BBBBBBBBt7770BBBBu4<<<<<<1BBBBBBBB:;XX..O@&BBBBBBBBBBBBB",
"BBBBBBBs877wBBBBe44<4<1BBBBBBBBBBBBBB:X...@2BBBBBBBBBBBB",
"BBBBBBBa87wsBBBe4-44qBBBBBBBBBBBBBBBB9@X..#BBBBBBBBBBBBB",
"BBBBBBs888tBBBe6044yBBBBB3<,,,,;,;:B9;XXX#BBBBBBBBBBBBBB",
"BBBBBBa88rBBBt7600BBBBB5<<,,,=======%XXX%BBBBBBBBBBBBBBB",
"BBBBBsppaBBBt776wBBBBe<<<<<,,,,,===*XX@;BBBBBBBBBBBBBBBB",
"BBBBBdp8aBBBr76wBBBBq44<<<15BBBB>>,===:BBBBBBBBBBBBBBBBB",
"BBBBhddaBBBs87wtBBBe4440yBBBBBBBBBB,;,BBBBBBBBBBBBBBBBBB",
"BBBBsdasBBBr87rBBBe-440BBBBBBBBBBBBBBBBBBBBBBBBBBBBBBBBB",
"BBBBdadhBBsa8wfBBt0660BBBBBBBBBBBBBBBBBBBBBBBBBBBBBBBBBB",
"BBBhdddBBBa88rBBBw760BBBBBBBBBBBBBBBBBBBBBBBBBBBBBBBBBBB",
"BBBhddhBBBaapfBBsw60iBBBBBBBBBBBBBBBBBBBBBBBBBBBBBBBBBBB",
"BBBzgghBBsapaBBBrw7wBBBBBBBBy51yBBBBBBBBBBBBBBBBBBBBBBBB",
"BBBgggnBBhapaBBBw8wtBBBBBBi0<4<<5BBBBBBBBBBBBBBBBBBBBBBB",
"BBBgggBBBhpdsBBf88wBBBBBBB4<<<<<,<BBBBBBBBBBBBBBBBBBBBBB",
"BBnzggBBBgpdhBBs88wBBBBBBe-<<4<<,<yBBBBBBBBBBBBBBBBBBBBB",
"BBnzzgBBBhdpjBBs88aBBBBBBe--4<<<,-3BBBBBBBBBBBBBBBBBBBBB",
"BBnlggBBBhddjBBs88aBBBBBBw-644<4<<yBBBBBBBBBBBBBBBBBBBBB",
"BBNlllBBBgddhBBsp8aBBBBBBe04-44<<<BBBBBBBBBBBBBBBBBBBBBB",
"BBBzllnBBzddhBBjaprBBBBBBB00-4-<<qBBBBBBBBBBBBBBBBBBBBBB",
"BBBllznBBhddhBBBappsBBBBBBBw4-44qBBBBBBBBBBBBBBBBBBBBBBB",
"BBBvllbBBngggBBBdaaaBBBBBBBBtueBBBBBBBBBBBBBBBBBBBBBBBBB",
"BBBbllzBBBggdhBBhppafBBBBBBBBBBBBBBBBBBBBBBBBBBBBBBBBBBB",
"BBBblllBBBhgghBBBsppaBBBBBBBBBBBBBBBBBBBBBBBBBBBBBBBBBBB",
"BBBBvlvnBBcgghnBBhdparBBBBBBBBBBBBBBBBBBBBBBBBBBBBBBBBBB",
"BBBBvvxvBBBggggBBBhdppaBBBBBBBBBBBBBBBBBBBBBBBBBBBBBBBBB",
"BBBBblxxBBBcggghBBBsa8aasBBBBBBBBBBe4qBBBBBBBBBBBBBBBBBB",
"BBBBBxxxvBBBzgggBBBBsppp8arsBBBBte4444qBBBBBBBBBBBBBBBBB",
"BBBBBbxxbBBBnggggBBBBhaap887w8w7004-44yBBBBBBBBBBBBBBBBB",
"BBBBBBvxlbBBBcggggBBBBBsar878777-w00qBBBBBBBBBBBBBBBBBBB",
"BBBBBBvvxlbBBBcggghhBBBBBfaaww7wwweBBBBByqBBBBBBBBBBBBBB",
"BBBBBBBvxxxbBBBcggdghBBBBBBBBBBBBBBBBBBq4<qBBBBBBBBBBBBB",
"BBBBBBBNxxxxBBBBzgggdghBBBBBBBBBBBBBBe044<<5BBBBBBBBBBBB",
"BBBBBBBBbvxxvBBBBnggggdgshhBBBBBBBtw046444<<5BBBBBBBBBBB",
"BBBBBBBBBvxxzzmBBBBhggpppdaaaaaww8w77064qq44<5BBBBBBBBBB",
"BBBBBBBBBBMxxllnBBBBBhgsppda8p888877w0wBBB0<4<1BBBBBBBBB",
"BBBBBBBBBBBbxxlxbBBBBBBzhsaaaa8r8wwwtBBBBBi4<<<5BBBBBBBB",
"BBBBBBBBBBBBmvxxlzzBBBBBBBBjhaassBBBBBBBBe44<4<yBBBBBBBB",
"BBBBBBBBBBBBBNvxllzgcBBBBBBBBBBBBBBBBBBew04-44uBBBBBBBBB",
"BBBBBBBBBBBBBBBbllllgghzkBBBBBBBBBBswww77400qBBBBBBBBBBB",
"BBBBBBBBBBBBBBBBBbxlllggghgghjhssaaww77700wBBBBBBBBBBBBB",
"BBBBBBBBBBBBBBBBBBBczzggggdppdpppp888w7weBBBBBBBBBBBBBBB",
"BBBBBBBBBBBBBBBBBBBBBnzzgggsgpgpppraarsBBBBBBBBBBBBBBBBB",
"BBBBBBBBBBBBBBBBBBBBBBBBBnnhgghshffBBBBBBBBBBBBBBBBBBBBB",
"BBBBBBBBBBBBBBBBBBBBBBBBBBBBBBBBBBBBBBBBBBBBBBBBBBBBBBBB"
};
